<svg xmlns="http://www.w3.org/2000/svg" width="345" height="63" version="1.2" viewBox="0 0 345 63"><style>.s0{fill:#231f20}</style><g id="레이어 1"><g id="&lt;Group&gt;"><path id="&lt;Path&gt;" d="M22.8 25.3s-2-.4-1.3-1.8c0 0 2.6-4.8 1.9-8.4 0 0 0-3.2-1.8-4.6-1.2-.8-1.6-.2-1.8-.1-.4.5-.2.6-.7 1.6-.9 1.8-1.2 2.4-7 7.6-5.3 4.6-4.5 4.1-6.2 5.5-1.3 1-6 5.3-5.9 8.8.2 3 1.8 4.9 4.8 4.4 2.9-.5 4.1-2.4 5.5-3.5 0 0 2.3-2.2 3.5-2.5 2.2-.7 5-.7 7.1 1.8 1.9 2.3 1.6 4-.9 7.4 0 0-.4 1.3-.9 1.9-.4.6-4 3.1-6.9 4-2.8.8-2.6-.2-3.8-.1-1.1.1-4.7 2.4-5.5 3.9-.9 1.5-.9 2.5 1.5 4.4 1.6 1.3 3.4 1.4 7.3 0 3.2-1 10.2-5.3 12.9-9 2.3-3.4 4.6-7.9 4-13.7-.6-5.1-4.2-7.1-5.8-7.6" class="s0"/><path d="M52 23.5c-.2-7.5-3.3-11.9-4.6-13-.4-.4-2.1-.5-3.4.6-1.9 1.5-1.6 4.3-1.6 5.7s.3 1.6-.1 3c-.3 1.4-.3 1.6-.2 6.6 0 1.1-1.2 2.2-3.2 2.2-1.9 0-6.9.3-6.9.3s.5-.1-.9.2c-1.4.4-.4 1.8-.1 2.7.2.4.6 1.8 2.2 2.5 1.2.5 2.5 1.4 4.1 1.5 1.8.1 4.5.1 4.5.1 1 .3 1.4.3 1.6 1.1.1.9.5 15.5 1.2 17.4s1.9 2 2.8 2.1c.9.2 1.4 1.4 3.7-.9 3-2.9 1.6-5.6 1.3-11.3-.4-5.6-.4-20.8-.4-20.8M81.3 31.4c1.5-.1 1.8.4 2.8.2 3.9-.4 6.5-4.2 7.8-7.4s3.1-11.1.4-13.6c-2-1.9-3.2-1.6-3.5-1.6-.9 0-2.3.5-3.1.4-1-.1-2.6-.3-5.6-.2-3.1.1-7.9-.3-9-.6-1.1-.2-2.2-.9-3.2-1.3-.9-.4-2.3.9-2.3.9s-3 3.2-3 5.3.9 3.6 5.1 3.9c4.1.2 4.9-.9 6.6-1.5 1.6-.6 7.2-3.2 9.3-1.8s-.6 9.6-5.8 18c-.1 0 .3-.2 3.5-.7M126.1 17.9c-.1-.5-.7-1.5-.5-1.4-.6-1.3-3.5-1-4.4-1.1-1-.1-2.5-.3-4-.1-1 .2-2.3.5-4.1.3-1.5-.1-3-.1-4.3-.2-.7-.1-1.4-.1-1.8-.1l-.5-3.5c-.3-.8-.4-7.5-4.3-7.5-1.1 0-1.6 1.1-2.1 1.5 0 0-1.9 2.7-2.1 6.8-.3 4.2.3 12.3.4 13.7.2 1.4 1.1 2.7 2 3 1 .4 2.1.4 2.9.6.8.3 1.9-.1 2.7-.8 1.4-1.4 1.2-1.6 1.3-3.1.1-1.4.1-5.4.1-6.2.3.1.9.1 1.9.2 2.1.3 3.8 2 5.2 2.9 1.5.8 5.5.9 6.2.8 1.3-.2 2.1-1 3.3-1.3 3.2-.8 2.7-2.1 2.5-2.6-.2-.4-.4-1.4-.4-1.9" class="s0"/><path id="&lt;Compound Path&gt;" fill-rule="evenodd" d="M113.1 44.2c.3 4.3.3 9.4-4.7 13.2-4.4 3.4-12.7 3.4-16 2.9-2-.3-10.4-2.4-11.5-10.5-1.4-9.9 4.4-14.4 6.1-15.6 1.5-1.1 3.4-1.3 3.9-1.6 1.6-.8 5.2-1 5.7-1.3 1.1-.8 2.2-.3 2.2-.3s.7.6.8 1.7l4.4.7c4.6 1.1 8.7 6.2 9.1 10.8m-8.3-3.1c-.8-1-1.2-2.5-5.6-3.4 0 0 0-.2-4.1 0 0 0-3.4.2-5.3 3.9s-1.3 8.3 2.6 10.2c3.6 1.8 9.2 1.9 12.2-1.5 3.4-3.9.6-8.6.2-9.2" class="s0"/><path d="M161.1 45c-2.1.9-2.2 1.2-4 1.2-1.9 0-.9.2-2.6-.2-.9-.2-1.2-.3-2.3-.5-1.5-.4-5.2-1-5.3-6.3-.1-5.6-.5-11.2.5-12.2.9-1.1.5-2.1.6-2.9.1-.9 1.2-1.2 1.8-1.1s1.6.5 3.2.5c0 0 1.6-.4 2.5-.5.6 0 1.9.4 3.6-1.1 0 0 2.8-2.1 2.9-3.8.1-1.6-.3-3.7-4-3.7-3.2 0-6.4-.2-8.2-.5-1.6-.2-2.9-.4-4.1-.5 0 0-2.5-1-4.6 1.1-1.5 1.5-1.2 2.5-.7 3.3.9 1.4 3.7 2.5 3.6 3.2-.2.7-1.6 1.6-2 2.1-.3.6-1 1.4-.7 2.3.4.9 0 2-.9 2.9-.8.8-.8 2.8-.8 3.7l.1 12.3s-1.4 8.9 13.1 9.1c0 0 7-.1 9.7-.9 1-.3 1.4-1.3 2.1-2 .5-.5.5-2.3.3-3.1-.3-1.7-2.1-3.1-3.8-2.4M192.2 15.6c-.1-.2.2-4.3-1.5-4.6-1.9-.2-1.8.1-2.9.2 0 0-2.2-.1-2.1 2.4.1 2.4-.7 4.9-.7 6.8 0 1 .4 11.9.6 16-1.6.1-3.8.1-5.1.1-.2-8.4-.7-20.6-3.2-22.3-1.8-1.2-2.4-2-4-1.6-.8.1-1.4.5-1.6 1 0 0-.6 1 0 3.4.5 1.9.2 19.4.4 23.1s0 12.2.9 12.7 1.9.8 3.2-.3c1.2-1.1 3.5-.2 4.5-1.2.5-.5 0-5-.1-6.9q0-.3-.1-1c.4-.2.8-.4 1.4-.6 1.3-.6 2.8-.5 4.1-.3.2 3.6.3 7.5.4 7.7.1.3.2 3.3 3.4 3.3 3.9 0 4.5-1.1 5.2-4.6s-1.1-12.7-1.3-18c-.3-6.5-1.3-14.4-1.5-15.3M227.5 8.9c.9.4 3.7.7 4.6-2.1s-.9-4.4-1.8-5.5c-.9-1-4.1-1.7-6.3-.5 0 0-2.5 1.7-.9 3.9 1.3 1.9 3.5 3.9 4.4 4.2" class="s0"/><path fill-rule="evenodd" d="M215.6 41.7c-4.5-3.7-4.3-10.3-2.4-14.1 2.9-5.8 6.8-7.7 6.8-7.7-.9-.1-2.3-.1-5.5-1.1-3.2-.9-3.5-2.8-3.6-6.2s4.6-3.1 4.6-3.1 5.7.3 7.5.4 6.8.1 8.8.2c2.1.1 3.5.8 4.5 1.7 1.5 1.1 1.6 2 1 2.8-.7.9-.3.5-1.1 2.3-.8 1.9-3.3 1.6-4 1.6s-4.6.3-2.7.9 4.8 2.5 4.8 2.5c5.3 3.9 6.6 10.8 5.8 14.4-.8 3.5-3.5 5.5-4.4 5.6-.8.1-2.3 1.1-3.1 1.7-1.2.8-4.4 1.5-4.4 1.5-3.7.2-8.3.1-12.6-3.4m8.7-4.3c1.5 1.1 3 1.1 4.2.9 1.3-.3 1-.9 1.9-1.4.8-.4 2.2-.7 2.8-.9s1.6-1.4 1.1-4.4c-.4-2.5-2.8-6.4-8.7-5.9 0 0-4.8.3-5 5.5 0 4.1 2.2 5.2 3.7 6.2" class="s0"/><path d="M267.7 25.5c-3-1.7-5.4-1.2-10.5-1.7-3.9-.4-5.9-1.5-6.8-2.3 0-2.9-.1-5.4-.2-6.6-.2-3.1.3-8.6-2.2-12.1-2.3-3.2-3.7-.7-3.7-.6-.3.8-.6 2.4-1.1 3.1s-1.3 2.3-1 3c0 0 .1 14.4.6 22.1.6 9.6.8 11.7 2.6 11.5 1.2 0 2.5-.6 3.5-1.9 1.1-1.3 2.3-2.5 1.8-5.4-.1-1.1-.2-4.3-.3-7.8 2 .2 2.3.3 4.1 2 1.9 1.9 4.5 3.6 8.6 3.8 4.7.1 5.9-1.6 6.1-2.6.2-.6 1-3-1.5-4.5M255.8 45.6s-1 .1-2.1.1c-1.3.1-3 0-3.9-.3-1-.4-6.9-.5-11.4-.4-5.4.1-9.7 1.2-12.7 1.9s-2.8 2.2-2.9 2.7c0 0-.6 2.9 3.6 2.7 3.4-.2 3.9-2.1 8.5-2.1s11.3-1.3 14-1c2.8.4 3.6 1 3.7 3.5.1 2.4 0 7.6 0 7.6s.3 2.8 2.5 2.5c2.1-.2 3-1 4-2.1 1.3-1.5 1-6.3 1-7.4 0-1.2.4-6.3-4.3-7.7M300.3 17c1.8 0 1.8.5 2.8.5 1.5.2 4.4-.3 5.9-.5 2.2-.3 7.7-.2 8.5.7.9 1 2.4 2.3 2.8 9.7.4 8.4.5 9.5 1.6 10.8 1.2 1.3 1.1 1.1 2.4 1.4 1.4.2 2.7.1 3.4-3.2 0 0 .5-4.2 1.1-6.6s.8-4.7 0-8.7c-.7-3.4-3-7.7-9.9-9-4-.8-3.9-.4-5.7-.7-1.8-.4-7.8 0-10.1-.2-2.4-.3-5.4-.7-6.5-.7-.8 0-1.3 1-1.5 1.8 0 0-.7 1.5.7 2.8 1.5 1.3 2.8 1.9 4.5 1.9M286.6 37.3c.4.4 1.4.9 2.2.9 1.1-.1 1.8-1.5 2.4-1.8.6-.4 1.9-1.4 2.4-2.1.4-.7.3-1.1-.2-1.6-.4-.4-.8-2.7-1.2-3.9-.3-1.1-2.3-2.4-3.3-2.5-.9-.1-1.6.5-1.9 2.4 0 0-.1 1.6-1.1 2.8-1.1 1.2-1.1 3.5-.6 4.4.4 1 .8 1.1 1.3 1.4" class="s0"/><path d="M344.8 43.3c-.1-.7-1.3-.9-2.5-1.1-1.2-.3-1.6-.7-2.8-1-1.2-.2-11.1.2-13.6.2-1.4 0-8.7-.5-18.1-.5q.6-.4 1.2-1.1c1.2-1.5 2.1-2 2.6-2.3.4-.4 1.6-5.8.1-7.5-1.8-2-3.4-3.5-4-3.9-1.4-.7-3.5 0-3.7 2.2-.1 1-.9 2-1.2 2.3 0 0-1.1 2.4-.6 4.6.6 2.3.9 3.1 1 4 .1.5.2 1.2.4 1.7-5.7.1-11.9.4-17.7 1.1 0 0-2.3.5-3.8.2-1.5-.4-2.1-2-4.3-1 0 0-.9.8-1.6 1.8-.7.9-.4 1.4-.6 1.9s-1.1 1.9.6 2.6c1.6.7 2.6 1.3 3.6 1.3 1.1 0 2.5.6 3.8.5s4.5-1.1 6.6-1.4c2.1-.2 21.6-1.7 25.7-1.4 4.1.2 20.2.7 22.9 1.2s2.9-.1 4.2-.9c1.3-.9 1.9-2.7 1.8-3.5" class="s0"/></g></g></svg>