<svg xmlns="http://www.w3.org/2000/svg" viewBox="0 0 520 360" role="img" aria-label="총동문회 조직도">
  <rect width="520" height="360" rx="24" fill="#eef3ff"/>
  <g fill="#8a1e2d" opacity="0.85">
    <rect x="200" y="40" width="120" height="48" rx="12"/>
    <rect x="80" y="128" width="120" height="48" rx="12"/>
    <rect x="200" y="128" width="120" height="48" rx="12"/>
    <rect x="320" y="128" width="120" height="48" rx="12"/>
    <rect x="110" y="220" width="120" height="48" rx="12" opacity="0.7"/>
    <rect x="230" y="220" width="120" height="48" rx="12" opacity="0.7"/>
    <rect x="350" y="220" width="120" height="48" rx="12" opacity="0.7"/>
  </g>
  <g stroke="#8a1e2d" stroke-width="6" fill="none" stroke-linecap="round">
    <line x1="260" y1="88" x2="140" y2="128"/>
    <line x1="260" y1="88" x2="260" y2="128"/>
    <line x1="260" y1="88" x2="380" y2="128"/>
    <line x1="140" y1="176" x2="170" y2="220"/>
    <line x1="260" y1="176" x2="260" y2="220"/>
    <line x1="380" y1="176" x2="350" y2="220"/>
  </g>
</svg>
